# xmcd
#
# Track frame offsets:
#	150
#	21281
#	45879
#
# Disc length: 982 seconds
#
# Revision: 0
# Processed by: cddbd v1.5.1PL2 Copyright (c) Steve Scherf et al.
# Submitted via: dBpowerAMP V4.0
#
DISCID=1703d403
DTITLE=Scott Miller and the Commonwealth - Amtrak Crescent - single
DYEAR=2003
DGENRE=Country/Rock
TTITLE0=Amtrak Crescent (album version)
TTITLE1=Amtrak Crescent (live version)
TTITLE2=Interview
EXTD=Promo single
EXTT0=
EXTT1=
EXTT2=
PLAYORDER=
